Coordinates
version=1
nRows=8
nColumns=36
inDegrees=yes

Units are S.I. units (second, meters, Newtons, ...)
If the header above contains a line with 'inDegrees', this indicates whether rotational values are in degrees (yes) or radians (no).

endheader
time	pelvis_tilt	pelvis_list	pelvis_rotation	pelvis_tx	pelvis_ty	pelvis_tz	hip_flexion_r	hip_adduction_r	hip_rotation_r	knee_angle_r	knee_angle_r_beta	ankle_angle_r	subtalar_angle_r	mtp_angle_r	hip_flexion_l	hip_adduction_l	hip_rotation_l	knee_angle_l	knee_angle_l_beta	ankle_angle_l	subtalar_angle_l	mtp_angle_l	lumbar_extension	lumbar_bending	lumbar_rotation	arm_flex_r	arm_add_r	arm_rot_r	elbow_flex_r	pro_sup_r	arm_flex_l	arm_add_l	arm_rot_l	elbow_flex_l	pro_sup_l
      0.00000000	     -9.67288792	     -1.43316463	     -4.36202037	      0.82494004	      0.90495091	      0.01712071	      7.41338704	     -3.11919729	      3.77056613	      0.68969984	      0.01203753	     -0.64700445	    -12.76026342	     -6.53202128	      6.51518608	    -10.24270722	      0.42586657	      0.60012182	      0.01047410	      6.43890118	     -5.78954289	     -6.53202128	      9.30346162	      2.58487453	     -3.50645556	     23.19276432	      1.41731378	     53.96921104	    114.12504674	     81.95229753	     29.15289695	      1.60147594	     62.18200479	    112.99001281	     94.02392894
      0.01666670	     -8.82043780	     -0.30020545	     -6.40346126	      0.82444960	      0.90263268	      0.01848734	      7.48316108	     -4.39184198	      5.17607584	      1.16623450	      0.02035463	     -0.29330471	    -12.36349087	     -6.77716015	      5.08445758	     -9.54062725	      0.06882288	      0.76027989	      0.01326939	      5.93899157	     -6.07445111	     -6.77716015	      8.41644086	      2.22841373	     -2.23856948	     26.51645753	     -0.14127755	     61.46833478	    117.56360915	     93.92148120	     31.23902523	     -0.21855546	     60.81460588	    118.67517126	    108.36378541
      0.03333330	     -7.73554910	     -0.68595080	     -6.51802474	      0.82362245	      0.90544669	      0.01868642	      6.96416671	     -4.05093560	      5.70617411	      2.24193458	      0.03912914	      0.58255438	    -11.61204970	     -7.24402958	      4.13740618	    -10.05352941	     -0.22960055	      1.47500925	      0.02574377	      5.47897981	     -5.86739139	     -7.24402958	      7.31436671	      2.49398115	     -3.00453476	     27.29038676	      0.96344225	     61.62109931	    118.42638991	     97.39145206	     32.45704946	     -1.24889579	     60.91272149	    119.86819062	    111.85797863
      0.05000000	     -7.08078019	     -0.77426311	     -6.52236096	      0.82259029	      0.90590378	      0.01820846	      6.68680258	     -4.10064594	      5.41647391	      2.74014050	      0.04782447	      1.16088690	    -10.77332085	     -7.28608193	      3.84398010	    -10.24314388	     -0.34412279	      2.30538204	      0.04023651	      5.63753014	     -5.57738155	     -7.28608193	      6.38062725	      2.44377454	     -3.37449234	     27.91702586	      1.92357816	     62.27186173	    118.55269954	     99.19654203	     33.62591759	     -1.59483203	     61.19712277	    120.40451778	    111.89401611
      0.06666670	     -6.82737446	     -0.81817673	     -6.24722511	      0.82198700	      0.90639846	      0.01787797	      6.55323377	     -4.10617626	      5.51651475	      3.10490087	      0.05419074	      1.86137558	    -10.59475147	     -7.34605578	      3.89042364	    -10.36887602	     -0.14617042	      2.86898261	      0.05007319	      5.59084738	     -5.10595404	     -7.34605578	      5.90320505	      2.37699343	     -3.66951447	     28.08891067	      2.48859223	     62.55180764	    118.30897666	    100.73777219	     34.38954909	     -1.74988689	     61.27400652	    120.64063355	    111.54896808
      0.08333330	     -6.90012059	     -0.70433229	     -6.06753162	      0.82194693	      0.90642560	      0.01769479	      6.65944924	     -4.22601238	      5.38405335	      3.28197615	      0.05728129	      2.19920147	    -10.56174108	     -7.39376907	      4.23213624	    -10.34479355	      0.09618594	      3.37393037	      0.05888619	      5.62280801	     -4.72471372	     -7.39376907	      5.92488479	      2.25673465	     -3.78298630	     28.01746165	      2.98436004	     63.19175383	    118.33138910	    100.71092816	     34.79353479	     -1.86340305	     61.42208972	    120.67222998	    110.87175910
      0.10000000	     -7.09152022	     -0.57855674	     -5.82721991	      0.82201226	      0.90610785	      0.01768561	      6.77213755	     -4.35228907	      5.28990089	      3.29731986	      0.05754909	      2.36940459	    -10.83762822	     -7.40799162	      4.64896754	    -10.28746655	      0.35104547	      3.73229688	      0.06514087	      5.70209284	     -4.30039284	     -7.40799162	      6.14118393	      2.08664328	     -3.86266117	     27.79423252	      3.27619758	     63.57469510	    118.36532855	    100.74988349	     35.04244773	     -1.89934739	     61.60105611	    120.73017024	    110.26757193
      0.11666670	     -7.34347405	     -0.47168195	     -5.68975878	      0.82232476	      0.90580042	      0.01762088	      6.90774874	     -4.43861699	      5.31533755	      3.23339489	      0.05643339	      2.49814626	    -11.22067474	     -7.42823769	      5.07390208	    -10.24954688	      0.55861838	      3.99152457	      0.06966525	      5.74812561	     -3.98123020	     -7.42823769	      6.50891036	      1.98925413	     -3.93122873	     27.52618021	      3.49946097	     63.72518352	    118.37397392	     99.69003392	     35.07537552	     -1.88610542	     61.47972154	    120.85459954	    109.92464263
